#!OML:ASF E:/inclinewalkrobotboard/Project1/Captureday1/Session1/subject1.ASF
:FULLY-SPECIFIED
:DEGREES
176
root 0 0 0 1.3138921465478286 -3.853659525631537 1.832651725741902
lowerback 12.169264309434032 0.8576628839716521 -0.0598940636752715
upperback -4.386158994646577 1.0949758261131957 -0.5683984342719716
thorax -11.618940039136149 0.49751005430303047 -0.8203019203892445
lowerneck -6.010459519467494 1.594260233065808 4.463852726459394
upperneck 18.3887318422664 3.0995363087688945 -8.197305214557902
head 6.743737396718796 1.1345127264325545 -3.143228792148564
rclavicle 1.9322630607036637E-15 -4.032747055215055E-16
rhumerus 21.253152606742027 15.771655447099041 -47.637704077792634
rradius 73.6469220589629
rwrist 26.822778554860506
rhand -34.660626819333814 -57.66374082780237
rfingers 7.125020000000014
rthumb -7.801514678292163 -87.60789825501882
lclavicle -4.3762282819502943E-16 -1.0202359389109366E-15
lhumerus 22.12455047029188 -12.529296844952723 43.86398760112721
lradius 71.11785819550401
lwrist -23.560729489129315
lhand -44.62162906666862 -71.13318979063166
lfingers 7.125020000000031
lthumb -17.40113475879015 -41.8351567380889
rfemur -25.231158181193923 -2.2181009784644736 17.200891016005063
rtibia 54.19627722281518
rfoot -29.69885083297919 -16.767175322061888
rtoes -18.433126215856408
lfemur -26.488818164403746 2.290787718951679 -17.627581503397746
ltibia 53.329889354708655
lfoot -32.600356484618366 -2.6134748094156515
ltoes -21.01851782150172
177
root 0 0 0 1.3138394246716385 -3.853445671196575 1.8326083087074871
lowerback 12.169246732106105 0.8576415818702423 -0.05987932065774493
upperback -4.38618912271787 1.0949501090925935 -0.5683938922577519
thorax -11.618966630197777 0.4974962961503326 -0.8203039065377953
lowerneck -6.010520240449698 1.5942990257343033 4.46389647689687
upperneck 18.388837534594206 3.099583714529653 -8.197340869441788
head 6.743778761253644 1.1345315764966686 -3.143243112969566
rclavicle 1.9321082116214875E-15 -4.031451269506873E-16
rhumerus 21.25317733459594 15.771622398832099 -47.637615092212386
rradius 73.64695849773585
rwrist 26.82283256840178
rhand -34.6607456113136 -57.66392894139969
rfingers 7.125020000000014
rthumb -7.801629207127705 -87.60808839677267
lclavicle -4.3726600569621075E-16 -1.0195761145290055E-15
lhumerus 22.124606257156366 -12.529346822134734 43.863987028447156
lradius 71.1179154022161
lwrist -23.560705522795658
lhand -44.62165395254683 -71.1332778983591
lfingers 7.125020000000031
lthumb -17.40116304800315 -41.835266030086615
rfemur -25.231116602153904 -2.2180285498853287 17.20090707765808
rtibia 54.19605760543102
rfoot -29.69890169871767 -16.767221708367146
rtoes -18.433122850627754
lfemur -26.48841609638381 2.290834207382337 -17.62732863785739
ltibia 53.330038102216136
lfoot -32.59968714350947 -2.614063869588231
ltoes -21.01992862947401
178
root 0 0 0 1.3136480777166302 -3.855773653773624 1.8329334999378983
lowerback 12.169090368599482 0.8579247606556284 -0.06019980121077273
upperback -4.385620449419054 1.095266151915204 -0.5682629739831445
thorax -11.618205111747375 0.4976867915276148 -0.8200322341531099
lowerneck -6.0090746806391095 1.5936176018299226 4.463357755291123
upperneck 18.387260188278777 3.0987894829254783 -8.19701551760784
head 6.743084853186197 1.134182169103557 -3.14314859789231
rclavicle 1.919465666750097E-15 -3.9720934978670623E-16
rhumerus 21.252529252066694 15.771355034012585 -47.6386695753349
rradius 73.64592758580041
rwrist 26.822173897215297
rhand -34.6599851342359 -57.66219388724317
rfingers 7.125020000000014
rthumb -7.8006178471790015 -87.60618669142852
lclavicle -4.4291905939409105E-16 -1.0185937539410808E-15
lhumerus 22.126266021022587 -12.52788123023298 43.86368590153377
lradius 71.11879250774578
lwrist -23.560900805454025
lhand -44.6218115557895 -71.1355738656715
lfingers 7.125020000000031
lthumb -17.401313938037188 -41.83856313472319
rfemur -25.232049900020385 -2.217158533296038 17.201727761844456
rtibia 54.19392746502073
rfoot -29.696174159383432 -16.7684939498709
rtoes -18.43060760153815
lfemur -26.495092821676813 2.291781123678378 -17.63134703247135
ltibia 53.32984946157152
lfoot -32.59999127337189 -2.612435025125225
ltoes -21.006900713844566
179
root 0 0 0 1.3139444140203294 -3.8539438802457084 1.8326509820403452
lowerback 12.169265259963705 0.8577044570228831 -0.05984864783753818
upperback -4.386091005369284 1.095039172636121 -0.5683881045939024
thorax -11.618859470589936 0.4975417442331388 -0.8203297477957734
lowerneck -6.010281851094973 1.5941624422518703 4.463803698600353
upperneck 18.388506773512532 3.09941510802732 -8.19726012655912
head 6.743641258745334 1.1344633722816617 -3.143221751026277
rclavicle 1.932308768477136E-15 -4.0346985107952815E-16
rhumerus 21.253290836830352 15.771827125317612 -47.63767937012298
rradius 73.64701250204351
rwrist 26.822783196026403
rhand -34.66051931326777 -57.663686014898666
rfingers 7.125020000000014
rthumb -7.801416750060316 -87.60788250372404
lclavicle -4.360168576359167E-16 -1.0194948718019161E-15
lhumerus 22.124257916883245 -12.529093296121236 43.86414412556854
lradius 71.11751862917987
lwrist -23.560653604116666
lhand -44.6216175529447 -71.13285283046837
lfingers 7.125020000000031
lthumb -17.40112946897862 -41.834848350104465
rfemur -25.231271198391617 -2.21814972725677 17.200789733126044
rtibia 54.196368728788784
rfoot -29.699051428570193 -16.767250315191717
rtoes -18.43270302325208
lfemur -26.488855390293374 2.2908811658067516 -17.62769449053856
ltibia 53.32996314424673
lfoot -32.6003425543625 -2.6129264562097654
ltoes -21.01722219372291
